<svg width="400" height="300" viewBox="0 0 400 300" xmlns="http://www.w3.org/2000/svg">
  <!-- Background shapes -->
  <circle cx="200" cy="150" r="120" fill="#e8f0fe" opacity="0.7"/>
  <circle cx="240" cy="120" r="60" fill="#d2e3fc" opacity="0.5"/>
  
  <!-- Medical cross symbol -->
  <rect x="170" y="100" width="60" height="150" rx="10" ry="10" fill="#1a73e8"/>
  <rect x="125" y="145" width="150" height="60" rx="10" ry="10" fill="#1a73e8"/>
  
  <!-- Heartbeat line -->
  <path d="M40,170 L80,170 L100,120 L120,220 L140,140 L160,190 L180,170 L360,170" 
        stroke="#34a853" 
        stroke-width="4" 
        fill="none"
        stroke-linecap="round"/>
  
  <!-- Stethoscope -->
  <circle cx="320" cy="100" r="15" fill="#fbbc04"/>
  <path d="M320,115 C320,115 320,150 300,170 C280,190 220,190 220,190" 
        stroke="#5f6368" 
        stroke-width="6" 
        fill="none"
        stroke-linecap="round"/>
  <path d="M320,115 L340,115 C345,115 350,120 350,125 L350,135 C350,140 345,145 340,145 L320,145" 
        stroke="#5f6368" 
        stroke-width="6" 
        fill="none"
        stroke-linecap="round"/>
</svg> 